<svg id="Layer_1" data-name="Layer 1" xmlns="http://www.w3.org/2000/svg" viewBox="0 0 1000 1000">
    <defs>
        <style>.cls-1{fill:#c02c1d;}</style>
    </defs>
    <path class="cls-1"
        d="M831.78,338.92c-5.57-35.1-20.41-66.14-42.24-93.89-31-39.35-71.51-61.82-121.46-65.64-53.23-4.07-99.88,13.2-140.79,46.85-15,12.34-27.67,27.09-41.23,40.9-2,2.08-3.11,2.16-5.13,0q-12.23-13-24.79-25.68c-39.33-39.64-86.45-61.6-134.08-62.7-27.16-.05-45.28,2.62-62.91,8.4-40.06,13.14-70.23,38.7-93.09,73.67-26.36,40.34-37.31,84.34-31.94,132.25,3.4,30.26,12.83,58.78,25.93,86.14,23.28,48.65,55.62,91,91.81,130.52,36.86,40.3,77,77.14,119.27,111.67q53.22,43.46,109,83.58c2.57,1.86,4.29,2,6.79,0,4.42-3.54,9.16-6.67,13.72-10,55.93-41.23,110.81-83.74,161.41-131.5,38.2-36.05,74.21-74.1,104.78-117,24.61-34.53,45.27-71.11,57.48-112C833.62,403.16,836.92,371.35,831.78,338.92Zm-318.09.48a36.53,36.53,0,0,1,8.78-9.07c7.52-5.51,15.43-6,23.52-1.54,9.86,5.41,16.15,14.21,21.48,23.73a82.72,82.72,0,0,1,9.18,26c3.28,17.76,1.54,33.63-7.64,48.2a62.88,62.88,0,0,1-20.19,20.31c-15.28,9.42-33.35,6.51-45.23-7.27a48.73,48.73,0,0,1-11.76-30.2C490.63,383.62,499.44,360.61,513.69,339.4ZM382.39,383c3.07-18.95,9.33-33.87,20.78-46.36,3.89-4.26,8.36-7.79,13.95-9.6,8.86-2.87,16.21.09,22.6,6.18,9.71,9.25,15.38,21.06,20.45,33.16a104.87,104.87,0,0,1,8.4,34.19c.89,14.69-2.28,28.38-12.21,39.8-12.35,14.19-32.21,16.07-47.56,4.78S383.89,419.19,382,400A65.67,65.67,0,0,1,382.39,383ZM340.6,529.72c-16.86-8.8-28.58-21.84-33.39-40.54A65.86,65.86,0,0,1,305,472.33c.13-19.19,4-34.89,13.44-49,3.2-4.79,7.07-9,12.32-11.61,8.31-4.19,16-2.4,23.28,2.64,11,7.66,18.42,18.47,25.28,29.65a104.92,104.92,0,0,1,13.52,32.5c3.13,14.39,2.1,28.4-6,41.2C376.83,533.63,357.49,538.53,340.6,529.72ZM594,632.12c-7.63,13-20,18.86-34.34,21.46a130.69,130.69,0,0,1-56.37-2.27c-15.83-4-31.81-2.65-47.67.61-9.62,2-19,5.05-28.68,6.68a58.21,58.21,0,0,1-64.35-36.54c-2.33-6.11-3.45-12.49-3.31-16.17.34-25,9-43,26.27-56.87,18.17-14.58,32.42-32.43,43.85-52.72,9.62-17.08,23.67-28.85,43.36-32.42,20.49-3.7,36.73,3.84,48.5,20.65a331.44,331.44,0,0,0,33.91,41.12c10.42,10.71,20.83,21.45,31,32.43C607.17,580.9,605.65,612.21,594,632.12ZM646,515a62.88,62.88,0,0,1-23.44,16.45c-16.7,6.6-34,.56-43.25-15.09a48.62,48.62,0,0,1-6.28-31.8c3.37-25.77,16.08-46.88,33.83-65.26a36.62,36.62,0,0,1,10.23-7.38c8.37-4.1,16.24-3.18,23.43,2.61,8.76,7.05,13.4,16.82,17,27.12A83,83,0,0,1,662,468.89C662.11,487,657.63,502.27,646,515Z" />
</svg>