<?xml version="1.0" encoding="utf-8"?>
<!-- Generator: Adobe Illustrator 27.5.0, SVG Export Plug-In . SVG Version: 6.00 Build 0)  -->
<svg version="1.1" xmlns="http://www.w3.org/2000/svg" xmlns:xlink="http://www.w3.org/1999/xlink" x="0px" y="0px"
	 viewBox="0 0 2200 2200" style="enable-background:new 0 0 2200 2200;" xml:space="preserve">
<g id="background">
	<rect style="fill:#FFFFFF;" width="2200" height="2200"/>
</g>
<g id="Objects">
	<g>
		<g>
			<path style="fill:#E05151;" d="M1927.772,821.005c-0.153,222.226-119.15,431.49-279.53,585.288
				c-157.472,150.94-352.602,255.853-548.242,352.551c-195.64-96.698-390.77-201.611-548.242-352.551
				c-160.38-153.798-279.428-363.062-279.53-585.288c-0.102-222.175,140.53-450.115,354.898-508.542
				c138.489-37.71,295.042,0,401.18,96.595c27.708,25.208,51.742,54.191,71.694,85.829c19.952-31.586,43.986-60.621,71.694-85.829
				c106.087-96.595,262.691-134.305,401.18-96.595C1787.241,370.89,1927.873,598.831,1927.772,821.005z"/>
			<path style="fill:#FFFFFF;" d="M1384.235,1337.31c-4.102,54.141-38.49,101.716-123.365,101.716
				c-92.77,0-96.23-45.315-160.87-45.315s-68.099,45.315-160.87,45.315c-84.875,0-119.263-47.575-123.365-101.716
				c-5.317-70.15,50.243-106.236,79.813-128.632c23.148-17.528,49.78-39.759,64.316-78.797
				c24.865-66.775,65.366-118.646,140.106-118.646c74.74,0,115.241,51.871,140.106,118.646
				c14.536,39.038,41.168,61.269,64.316,78.797C1333.992,1231.074,1389.551,1267.16,1384.235,1337.31z"/>
			<path style="fill:#FFFFFF;" d="M996.365,942c-55.385,13.505-117.869-47.689-139.569-136.681
				c-21.699-88.987,5.605-172.075,60.991-185.581c55.38-13.505,117.865,47.689,139.564,136.681
				C1079.049,845.407,1051.745,928.495,996.365,942z"/>
			<path style="fill:#FFFFFF;" d="M857.729,1124.736c-46.771,26.466-119.153-13.003-161.677-88.15
				c-42.524-75.147-39.084-157.52,7.686-183.986c46.766-26.466,119.149,13.003,161.673,88.15
				C907.935,1015.897,904.495,1098.27,857.729,1124.736z"/>
			<path style="fill:#FFFFFF;" d="M1203.635,942c55.385,13.505,117.87-47.689,139.569-136.681
				c21.699-88.987-5.605-172.075-60.991-185.581c-55.38-13.505-117.865,47.689-139.564,136.681
				C1120.951,845.407,1148.255,928.495,1203.635,942z"/>
			<path style="fill:#FFFFFF;" d="M1342.271,1124.736c46.771,26.466,119.153-13.003,161.677-88.15s39.084-157.52-7.686-183.986
				c-46.766-26.466-119.149,13.003-161.673,88.15S1295.505,1098.27,1342.271,1124.736z"/>
		</g>
		<ellipse style="fill:#CECECE;" cx="1100" cy="1872.244" rx="543.932" ry="29.704"/>
	</g>
</g>
</svg>
